HIERARCHY
ROOT Hips
{
	OFFSET 0.000000 0.000000 0.000000
	CHANNELS 6 Xposition Yposition Zposition Xrotation Yrotation Zrotation
	JOINT Thigh.L
	{
		OFFSET 0.053711 0.030472 -0.091456
		CHANNELS 3 Xrotation Yrotation Zrotation
		JOINT Shin.L
		{
			OFFSET 0.052514 0.016395 -0.408894
			CHANNELS 3 Xrotation Yrotation Zrotation
			JOINT Foot.L
			{
				OFFSET -0.041236 0.032673 -0.429109
				CHANNELS 3 Xrotation Yrotation Zrotation
				JOINT Toe.L
				{
					OFFSET 0.044455 -0.118741 -0.063432
					CHANNELS 3 Xrotation Yrotation Zrotation
					End Site
					{
						OFFSET 0.000000 0.050000 0.000000
					}
				}
			}
		}
	}
	JOINT Thigh.R
	{
		OFFSET -0.058954 0.027926 -0.101748
		CHANNELS 3 Xrotation Yrotation Zrotation
		JOINT Shin.R
		{
			OFFSET -0.041974 0.021652 -0.392695
			CHANNELS 3 Xrotation Yrotation Zrotation
			JOINT Foot.R
			{
				OFFSET 0.015573 0.021275 -0.437989
				CHANNELS 3 Xrotation Yrotation Zrotation
				JOINT Toe.R
				{
					OFFSET -0.036877 -0.119514 -0.063442
					CHANNELS 3 Xrotation Yrotation Zrotation
					End Site
					{
						OFFSET 0.000000 0.050000 0.000000
					}
				}
			}
		}
	}
	JOINT Spine
	{
		OFFSET -0.001910 0.019308 0.108500
		CHANNELS 3 Xrotation Yrotation Zrotation
		JOINT Spine.2
		{
			OFFSET 0.006444 0.002857 0.134094
			CHANNELS 3 Xrotation Yrotation Zrotation
			JOINT Chest
			{
				OFFSET -0.010290 -0.022530 0.049120
				CHANNELS 3 Xrotation Yrotation Zrotation
				JOINT Neck
				{
					OFFSET -0.009229 0.028798 0.163608
					CHANNELS 3 Xrotation Yrotation Zrotation
					JOINT Head
					{
						OFFSET 0.022003 -0.023187 0.167534
						CHANNELS 3 Xrotation Yrotation Zrotation
						End Site
						{
							OFFSET 0.000000 0.050000 0.000000
						}
					}
				}
				JOINT Clavicle.L
				{
					OFFSET 0.043012 0.008471 0.083524
					CHANNELS 3 Xrotation Yrotation Zrotation
					JOINT UpperArm.L
					{
						OFFSET 0.105310 0.014808 0.061378
						CHANNELS 3 Xrotation Yrotation Zrotation
						JOINT ForeArm.L
						{
							OFFSET 0.263479 0.034636 -0.075166
							CHANNELS 3 Xrotation Yrotation Zrotation
							JOINT Hand.L
							{
								OFFSET 0.262256 0.006682 0.020773
								CHANNELS 3 Xrotation Yrotation Zrotation
								JOINT Thumb1.L
								{
									OFFSET 0.154587 0.003047 0.009472
									CHANNELS 3 Xrotation Yrotation Zrotation
									JOINT Thumb2.L
									{
										OFFSET 0.029897 0.000762 0.002368
										CHANNELS 3 Xrotation Yrotation Zrotation
										End Site
										{
											OFFSET 0.024914 0.000635 0.001973
										}
									}
								}
								JOINT Index1.L
								{
									OFFSET 0.137587 0.003047 0.009472
									CHANNELS 3 Xrotation Yrotation Zrotation
									JOINT Index2.L
									{
										OFFSET 0.029897 0.000762 0.002368
										CHANNELS 3 Xrotation Yrotation Zrotation
										JOINT Index3.L
										{
											OFFSET 0.021924 0.000559 0.001737
											CHANNELS 3 Xrotation Yrotation Zrotation
											End Site
											{
												OFFSET 0.017938 0.000457 0.001421
											}
										}
									}
								}
								JOINT Middle1.L
								{
									OFFSET 0.119587 0.003047 0.009472
									CHANNELS 3 Xrotation Yrotation Zrotation
									JOINT Middle2.L
									{
										OFFSET 0.030893 0.000787 0.002447
										CHANNELS 3 Xrotation Yrotation Zrotation
										JOINT Middle3.L
										{
											OFFSET 0.021924 0.000559 0.001737
											CHANNELS 3 Xrotation Yrotation Zrotation
											End Site
											{
												OFFSET 0.017938 0.000457 0.001421
											}
										}
									}
								}
								JOINT Ring1.L
								{
									OFFSET 0.101587 0.003047 0.009472
									CHANNELS 3 Xrotation Yrotation Zrotation
									JOINT Ring2.L
									{
										OFFSET 0.028900 0.000736 0.002289
										CHANNELS 3 Xrotation Yrotation Zrotation
										JOINT Ring3.L
										{
											OFFSET 0.019931 0.000508 0.001579
											CHANNELS 3 Xrotation Yrotation Zrotation
											End Site
											{
												OFFSET 0.016941 0.000432 0.001342
											}
										}
									}
								}
								JOINT Pinky1.L
								{
									OFFSET 0.085587 0.003047 0.009472
									CHANNELS 3 Xrotation Yrotation Zrotation
									JOINT Pinky2.L
									{
										OFFSET 0.023917 0.000609 0.001894
										CHANNELS 3 Xrotation Yrotation Zrotation
										JOINT Pinky3.L
										{
											OFFSET 0.016941 0.000432 0.001342
											CHANNELS 3 Xrotation Yrotation Zrotation
											End Site
											{
												OFFSET 0.013952 0.000355 0.001105
											}
										}
									}
								}
							}
						}
					}
				}
				JOINT Clavicle.R
				{
					OFFSET -0.040902 0.014553 0.083008
					CHANNELS 3 Xrotation Yrotation Zrotation
					JOINT UpperArm.R
					{
						OFFSET -0.090903 0.009538 0.057011
						CHANNELS 3 Xrotation Yrotation Zrotation
						JOINT ForeArm.R
						{
							OFFSET -0.279406 0.022385 -0.042849
							CHANNELS 3 Xrotation Yrotation Zrotation
							JOINT Hand.R
							{
								OFFSET -0.258973 0.019134 -0.003513
								CHANNELS 3 Xrotation Yrotation Zrotation
								JOINT Thumb1.R
								{
									OFFSET -0.154663 0.008841 -0.001623
									CHANNELS 3 Xrotation Yrotation Zrotation
									JOINT Thumb2.R
									{
										OFFSET -0.029916 0.002210 -0.000406
										CHANNELS 3 Xrotation Yrotation Zrotation
										End Site
										{
											OFFSET -0.024930 0.001842 -0.000338
										}
									}
								}
								JOINT Index1.R
								{
									OFFSET -0.137663 0.008841 -0.001623
									CHANNELS 3 Xrotation Yrotation Zrotation
									JOINT Index2.R
									{
										OFFSET -0.029916 0.002210 -0.000406
										CHANNELS 3 Xrotation Yrotation Zrotation
										JOINT Index3.R
										{
											OFFSET -0.021938 0.001621 -0.000298
											CHANNELS 3 Xrotation Yrotation Zrotation
											End Site
											{
												OFFSET -0.017949 0.001326 -0.000244
											}
										}
									}
								}
								JOINT Middle1.R
								{
									OFFSET -0.119663 0.008841 -0.001623
									CHANNELS 3 Xrotation Yrotation Zrotation
									JOINT Middle2.R
									{
										OFFSET -0.030913 0.002284 -0.000419
										CHANNELS 3 Xrotation Yrotation Zrotation
										JOINT Middle3.R
										{
											OFFSET -0.021938 0.001621 -0.000298
											CHANNELS 3 Xrotation Yrotation Zrotation
											End Site
											{
												OFFSET -0.017949 0.001326 -0.000244
											}
										}
									}
								}
								JOINT Ring1.R
								{
									OFFSET -0.101663 0.008841 -0.001623
									CHANNELS 3 Xrotation Yrotation Zrotation
									JOINT Ring2.R
									{
										OFFSET -0.028919 0.002137 -0.000392
										CHANNELS 3 Xrotation Yrotation Zrotation
										JOINT Ring3.R
										{
											OFFSET -0.019944 0.001474 -0.000271
											CHANNELS 3 Xrotation Yrotation Zrotation
											End Site
											{
												OFFSET -0.016952 0.001252 -0.000230
											}
										}
									}
								}
								JOINT Pinky1.R
								{
									OFFSET -0.085663 0.008841 -0.001623
									CHANNELS 3 Xrotation Yrotation Zrotation
									JOINT Pinky2.R
									{
										OFFSET -0.023933 0.001768 -0.000325
										CHANNELS 3 Xrotation Yrotation Zrotation
										JOINT Pinky3.R
										{
											OFFSET -0.016952 0.001252 -0.000230
											CHANNELS 3 Xrotation Yrotation Zrotation
											End Site
											{
												OFFSET -0.013961 0.001031 -0.000189
											}
										}
									}
								}
							}
						}
					}
				}
			}
		}
	}
}
MOTION
Frames: 4
Frame Time: 0.03333333
-0.010346 -0.028840 1.103177 -3.788334 2.177789 1.098601 1.679439 0.168743 1.215818 0.663804 -0.394020 -6.074958 -2.799880 3.568301 9.020775 3.169250 -3.129461 0.088918 -1.151112 -4.651765 0.492320 5.533508 0.455306 3.720623 -1.529368 -3.920869 -2.386957 1.292255 -1.921673 -1.265596 4.101496 1.191834 2.185109 9.640473 -6.030582 -3.712529 -11.899658 0.920337 -0.097156 14.200155 3.649596 -0.927022 7.742944 -3.973542 8.593201 9.637416 20.200821 2.573215 14.595631 50.964228 -18.044304 7.972856 -3.821891 -18.974334 4.604042 -8.990276 -6.156924 0.000000 0.000000 0.000000 0.000000 0.000000 0.000000 0.000000 0.000000 0.000000 0.000000 0.000000 0.000000 0.000000 0.000000 0.000000 0.000000 0.000000 0.000000 0.000000 0.000000 0.000000 0.000000 0.000000 0.000000 0.000000 0.000000 0.000000 0.000000 0.000000 0.000000 0.000000 0.000000 0.000000 0.000000 0.000000 0.000000 0.000000 0.000000 0.000000 0.000000 0.000000 0.000000 8.050215 -9.273306 0.256548 34.161830 -57.345738 27.944096 12.102347 3.433185 24.982347 -2.721042 0.438691 2.269666 0.000000 0.000000 0.000000 0.000000 0.000000 0.000000 0.000000 0.000000 0.000000 0.000000 0.000000 0.000000 0.000000 0.000000 0.000000 0.000000 0.000000 0.000000 0.000000 0.000000 0.000000 0.000000 0.000000 0.000000 0.000000 0.000000 0.000000 0.000000 0.000000 0.000000 0.000000 0.000000 0.000000 0.000000 0.000000 0.000000 0.000000 0.000000 0.000000 0.000000 0.000000 0.000000
-0.012349 -0.026862 1.103119 -3.669097 2.250518 1.074591 1.804280 0.248023 1.173011 0.335511 -0.485078 -6.102927 -2.738308 3.518225 9.065267 3.190994 -3.151448 0.100351 -1.167913 -4.712995 0.528665 5.465242 0.556933 3.748717 -1.499093 -3.840355 -2.433854 1.301077 -1.938910 -1.262337 4.078026 1.178498 2.152311 9.632668 -6.007559 -3.744019 -11.850768 0.901986 -0.127054 14.076393 3.655270 -0.859118 7.653817 -3.959137 8.596940 9.613640 20.189055 2.616562 14.761733 51.039326 -18.141324 7.960059 -3.800897 -19.101711 4.451790 -8.850293 -6.139490 0.000000 0.000000 0.000000 0.000000 0.000000 0.000000 0.000000 0.000000 0.000000 0.000000 0.000000 0.000000 0.000000 0.000000 0.000000 0.000000 0.000000 0.000000 0.000000 0.000000 0.000000 0.000000 0.000000 0.000000 0.000000 0.000000 0.000000 0.000000 0.000000 0.000000 0.000000 0.000000 0.000000 0.000000 0.000000 0.000000 0.000000 0.000000 0.000000 0.000000 0.000000 0.000000 7.980199 -9.179847 0.208188 34.250520 -57.342864 28.069995 11.963105 3.394021 24.746362 -2.841303 0.213187 2.229243 0.000000 0.000000 0.000000 0.000000 0.000000 0.000000 0.000000 0.000000 0.000000 0.000000 0.000000 0.000000 0.000000 0.000000 0.000000 0.000000 0.000000 0.000000 0.000000 0.000000 0.000000 0.000000 0.000000 0.000000 0.000000 0.000000 0.000000 0.000000 0.000000 0.000000 0.000000 0.000000 0.000000 0.000000 0.000000 0.000000 0.000000 0.000000 0.000000 0.000000 0.000000 0.000000
-0.013432 -0.025603 1.103082 -3.592745 2.309534 1.012326 1.784129 0.231963 1.149789 0.329694 -0.481839 -6.058798 -2.758859 3.502172 9.056014 3.165682 -3.182326 0.114198 -1.184314 -4.724680 0.509278 5.421274 0.527511 3.776285 -1.482938 -3.861251 -2.428245 1.313106 -1.965980 -1.272794 3.977414 1.117371 2.146178 9.608093 -5.947994 -3.765910 -11.712617 0.922486 -0.148991 13.960579 3.667000 -0.777767 7.670014 -3.916171 8.688171 9.485437 20.143290 2.587057 14.785225 51.072101 -18.121208 7.944958 -3.759660 -19.102313 4.573267 -8.794461 -6.074615 0.000000 0.000000 0.000000 0.000000 0.000000 0.000000 0.000000 0.000000 0.000000 0.000000 0.000000 0.000000 0.000000 0.000000 0.000000 0.000000 0.000000 0.000000 0.000000 0.000000 0.000000 0.000000 0.000000 0.000000 0.000000 0.000000 0.000000 0.000000 0.000000 0.000000 0.000000 0.000000 0.000000 0.000000 0.000000 0.000000 0.000000 0.000000 0.000000 0.000000 0.000000 0.000000 7.847277 -9.180566 0.202898 34.334043 -57.314012 28.140007 11.816288 3.295092 24.650275 -2.766179 0.097533 2.147381 0.000000 0.000000 0.000000 0.000000 0.000000 0.000000 0.000000 0.000000 0.000000 0.000000 0.000000 0.000000 0.000000 0.000000 0.000000 0.000000 0.000000 0.000000 0.000000 0.000000 0.000000 0.000000 0.000000 0.000000 0.000000 0.000000 0.000000 0.000000 0.000000 0.000000 0.000000 0.000000 0.000000 0.000000 0.000000 0.000000 0.000000 0.000000 0.000000 0.000000 0.000000 0.000000
-0.013191 -0.025622 1.103063 -3.572539 2.286364 1.042228 1.694059 0.252038 1.109782 0.439349 -0.492003 -6.019203 -2.766296 3.539258 9.017599 3.132720 -3.207029 0.120529 -1.279156 -4.708339 0.522491 5.532956 0.493036 3.729935 -1.488385 -3.852429 -2.472407 1.321450 -1.962153 -1.280970 3.910070 1.081180 2.136116 9.616075 -5.919656 -3.807586 -11.650079 0.918669 -0.173316 13.915116 3.715745 -0.735937 7.645487 -3.919743 8.835769 9.395780 20.067149 2.508291 14.843630 51.130953 -18.218438 7.833121 -3.751249 -19.067924 4.614302 -8.785697 -6.055221 0.000000 0.000000 0.000000 0.000000 0.000000 0.000000 0.000000 0.000000 0.000000 0.000000 0.000000 0.000000 0.000000 0.000000 0.000000 0.000000 0.000000 0.000000 0.000000 0.000000 0.000000 0.000000 0.000000 0.000000 0.000000 0.000000 0.000000 0.000000 0.000000 0.000000 0.000000 0.000000 0.000000 0.000000 0.000000 0.000000 0.000000 0.000000 0.000000 0.000000 0.000000 0.000000 7.740906 -9.118968 0.226314 34.437660 -57.319328 28.275437 11.783772 3.208057 24.598583 -2.736158 0.018801 2.103568 0.000000 0.000000 0.000000 0.000000 0.000000 0.000000 0.000000 0.000000 0.000000 0.000000 0.000000 0.000000 0.000000 0.000000 0.000000 0.000000 0.000000 0.000000 0.000000 0.000000 0.000000 0.000000 0.000000 0.000000 0.000000 0.000000 0.000000 0.000000 0.000000 0.000000 0.000000 0.000000 0.000000 0.000000 0.000000 0.000000 0.000000 0.000000 0.000000 0.000000 0.000000 0.000000
